<?xml version="1.0" encoding="UTF-8"?>
<svg width="32px" height="32px" viewBox="0 0 32 32" version="1.1" xmlns="http://www.w3.org/2000/svg" xmlns:xlink="http://www.w3.org/1999/xlink">
    <!-- Generator: Sketch 52.2 (67145) - http://www.bohemiancoding.com/sketch -->
    <title>if_youtube_circle_294712 copy</title>
    <desc>Created with Sketch.</desc>
    <g id="Page-1" stroke="none" stroke-width="1" fill="none" fill-rule="evenodd">
        <g id="06-Merchant" transform="translate(-1361.000000, -770.000000)">
            <g id="Group-14" transform="translate(1151.000000, 770.000000)">
                <g id="if_youtube_circle_294712-copy" transform="translate(210.000000, 0.000000)">
                    <circle id="Oval" fill="#FFFFFF" cx="16" cy="16" r="16"></circle>
                    <path d="M12,15.1428571 L12,17.2 L15.4028571,17.2 C15.2657143,18.082 14.3742857,19.7885714 12,19.7885714 C9.95142857,19.7885714 8.28,18.0922857 8.28,16 C8.28,13.9085714 9.95142857,12.2114286 12,12.2114286 C13.1657143,12.2114286 13.9457143,12.7085714 14.3914286,13.1371429 L16.02,11.5685714 C14.9742857,10.5914286 13.62,10 12,10 C8.68285714,10 6,12.6828571 6,16 C6,19.3171429 8.68285714,22 12,22 C15.4628571,22 17.7608571,19.5657143 17.7608571,16.1371429 C17.7608571,15.7428571 17.7171429,15.4428571 17.6657143,15.1428571 L12,15.1428571 Z M12,15.1428571 L26.5714286,16.8571429 L24,16.8571429 L24,19.4285714 L22.2857143,19.4285714 L22.2857143,16.8571429 L19.7142857,16.8571429 L19.7142857,15.1428571 L22.2857143,15.1428571 L22.2857143,12.5714286 L24,12.5714286 L24,15.1428571 L26.5714286,15.1428571 L26.5714286,16.8571429 L12,15.1428571 Z" id="Shape" fill="#2196F3" fill-rule="nonzero"></path>
                </g>
            </g>
        </g>
    </g>
</svg>