<svg xmlns="http://www.w3.org/2000/svg" width="32" height="32" viewBox="0 0 32 32">
    <g fill="none" fill-rule="evenodd">
        <circle cx="16" cy="16" r="16" fill="#FFF"/>
        <path fill="#2196F3" fill-rule="nonzero" d="M20.8 8.2h-9.6c-1.667 0-3 1.333-3 3V20.8c0 1.667 1.333 3 3 3h9.6c1.667 0 3-1.333 3-3V11.2c0-1.667-1.333-3-3-3zm.867 1.8H22V12.667h-2.667V10h2.334zM13.8 14.4c.467-.667 1.333-1.133 2.2-1.133.867 0 1.733.466 2.2 1.133.333.467.533 1 .533 1.6 0 1.533-1.266 2.733-2.733 2.733s-2.733-1.2-2.733-2.733c0-.6.2-1.133.533-1.6zm8.467 6.4c0 .8-.667 1.467-1.467 1.467h-9.6A1.48 1.48 0 0 1 9.733 20.8v-6.4h2.334a4.29 4.29 0 0 0-.334 1.6c0 2.333 1.934 4.267 4.267 4.267s4.267-1.934 4.267-4.267a4.29 4.29 0 0 0-.334-1.6h2.334v6.4z"/>
    </g>
</svg>
