<svg xmlns="http://www.w3.org/2000/svg" width="32" height="32" viewBox="0 0 32 32">
    <g fill="none" fill-rule="evenodd">
        <circle cx="16" cy="16" r="16" fill="#FFF"/>
        <path fill="#2196F3" fill-rule="nonzero" d="M11.6 23.267H8.533V13.4H11.6v9.867zM9.933 12.133c-1.133 0-1.866-.733-1.866-1.733S8.8 8.667 9.933 8.667c1.134 0 1.867.733 1.867 1.733s-.667 1.733-1.867 1.733zm14 11.134H20.4v-5.134c0-1.333-.533-2.266-1.733-2.266-.934 0-1.4.6-1.667 1.2-.067.2-.067.533-.067.8V23.2h-3.466s.066-9.067 0-9.867h3.466v1.534c.2-.667 1.334-1.667 3.067-1.667 2.2 0 3.933 1.4 3.933 4.467v5.6z"/>
    </g>
</svg>
