<svg xmlns="http://www.w3.org/2000/svg" width="32" height="32" viewBox="0 0 32 32">
    <g fill="none" fill-rule="evenodd">
        <circle cx="16" cy="16" r="16" fill="#FFF"/>
        <path fill="#2196F3" d="M24.533 10.267c-.6.333-1.333.533-2 .6.734-.467 1.267-1.2 1.534-2.067-.667.4-1.4.733-2.267.933-.667-.733-1.533-1.2-2.533-1.2-1.934 0-3.534 1.667-3.534 3.8 0 .267 0 .6.067.867-2.933-.133-5.533-1.667-7.267-3.933-.333.533-.466 1.2-.466 1.933 0 1.333.6 2.467 1.533 3.133-.6 0-1.133-.2-1.6-.466v.066c0 1.8 1.2 3.334 2.8 3.734-.267.066-.6.133-.933.133-.2 0-.467 0-.667-.067.467 1.534 1.733 2.6 3.267 2.6-1.2 1-2.734 1.6-4.334 1.6-.266 0-.533 0-.866-.066 1.533 1.066 3.4 1.733 5.4 1.733 6.466 0 10-5.733 10-10.733V12.4c.8-.667 1.4-1.333 1.866-2.133z"/>
    </g>
</svg>
