<svg xmlns="http://www.w3.org/2000/svg" width="32" height="32" viewBox="0 0 32 32">
    <g fill="none" fill-rule="evenodd">
        <circle cx="16" cy="16" r="16" fill="#FFF"/>
        <path fill="#2196F3" fill-rule="nonzero" d="M23.467 12.333c0-.066 0-.133-.067-.2v-.066c-.2-.6-.733-1-1.4-1h.133s-2.6-.4-6.133-.4c-3.467 0-6.133.4-6.133.4H10c-.667 0-1.2.4-1.4 1v.066c0 .067 0 .134-.067.2C8.467 13 8.267 14.4 8.267 16c0 1.6.2 3 .266 3.667 0 .066 0 .133.067.2v.066c.2.6.733 1 1.4 1h-.133s2.6.4 6.133.4c3.467 0 6.133-.4 6.133-.4H22c.667 0 1.2-.4 1.4-1v-.066c0-.067 0-.134.067-.2.066-.667.266-2.067.266-3.667 0-1.6-.133-3-.266-3.667zm-5.2 4L15.133 18.6c-.066.067-.133.067-.2.067-.066 0-.133 0-.2-.067a.367.367 0 0 1-.2-.333v-4.534c0-.133.067-.266.2-.333a.425.425 0 0 1 .4 0l3.134 2.267A.51.51 0 0 1 18.4 16c.067.133 0 .267-.133.333z"/>
    </g>
</svg>
